<?xml version="1.0" standalone="no"?>
<!DOCTYPE svg PUBLIC "-//W3C//DTD SVG 20010904//EN"
 "http://www.w3.org/TR/2001/REC-SVG-20010904/DTD/svg10.dtd">
<svg version="1.0" xmlns="http://www.w3.org/2000/svg"
 width="80.000000pt" height="80.000000pt" viewBox="0 0 80.000000 80.000000"
 preserveAspectRatio="xMidYMid meet">
<metadata>
Created by potrace 1.11, written by Peter Selinger 2001-2013
</metadata>
<g transform="translate(0.000000,80.000000) scale(0.100000,-0.100000)"
fill="#000000" stroke="none">
<path d="M270 778 c-336 -126 -357 -584 -34 -734 201 -94 431 -9 527 193 30
63 32 76 31 168 0 86 -4 108 -27 158 -36 78 -112 157 -193 198 -59 29 -76 33
-157 35 -73 2 -104 -2 -147 -18z m294 -32 c73 -36 152 -115 185 -185 23 -49
26 -69 26 -156 0 -93 -2 -105 -33 -167 -95 -193 -314 -268 -509 -173 -141 70
-216 199 -209 364 6 157 131 305 291 345 11 3 59 4 106 2 70 -2 96 -7 143 -30z"/>
<path d="M281 741 c-95 -36 -158 -94 -205 -191 -28 -58 -31 -74 -30 -150 1
-68 6 -96 27 -142 35 -79 94 -139 175 -179 60 -29 76 -33 152 -33 72 -1 94 4
142 26 76 35 151 107 185 177 25 50 28 67 28 156 0 91 -3 105 -28 154 -36 67
-110 141 -174 171 -68 33 -197 38 -272 11z m277 -35 c93 -48 164 -146 179
-248 24 -154 -54 -300 -194 -366 -49 -23 -71 -27 -143 -27 -72 0 -93 4 -140
27 -71 35 -133 97 -167 167 -23 47 -28 69 -28 141 0 76 3 92 33 151 84 172
291 241 460 155z"/>
<path d="M258 503 c-128 -42 -166 -63 -119 -63 30 0 35 -19 6 -26 -32 -8 -32
-18 3 -31 l27 -10 -28 -8 c-15 -4 -27 -11 -27 -15 0 -4 33 -17 73 -30 39 -12
98 -31 131 -41 32 -11 67 -19 78 -19 27 0 288 83 288 91 0 4 -15 9 -32 13 -26
5 -30 9 -18 16 8 5 23 10 33 10 29 0 19 18 -15 26 l-33 7 35 15 35 15 -145 48
c-79 27 -147 49 -150 48 -3 0 -67 -21 -142 -46z m259 -10 c62 -21 113 -41 113
-45 0 -16 -57 -7 -140 22 l-85 29 -93 -30 c-64 -22 -101 -29 -120 -24 -23 6
-10 13 88 46 63 21 117 39 120 39 2 0 55 -17 117 -37z m-42 -38 c79 -28 83
-31 58 -39 -11 -3 -44 2 -74 13 -53 18 -57 18 -113 0 -39 -11 -65 -15 -80 -9
-11 5 -19 9 -16 10 3 0 37 12 75 25 39 12 73 23 76 24 3 1 37 -10 74 -24z
m-35 -40 l35 -13 -30 -12 c-28 -10 -86 -7 -109 8 -6 3 6 11 25 18 42 15 37 15
79 -1z m-196 -16 c-3 -5 -22 -9 -42 -9 -33 1 -35 2 -19 14 18 14 71 10 61 -5z
m386 1 c0 -13 -35 -17 -60 -7 -23 8 -24 10 -6 16 22 9 66 2 66 -9z m-279 -26
c46 -15 53 -15 105 1 35 11 64 14 82 10 24 -7 19 -10 -48 -31 -91 -29 -86 -29
-172 -3 -48 15 -66 24 -57 30 20 12 34 11 90 -7z m-22 -44 l75 -22 92 27 c64
19 102 25 121 20 26 -7 24 -9 -32 -25 -33 -10 -87 -27 -120 -37 l-60 -19 -95
29 c-52 16 -105 31 -117 34 -36 8 -14 25 26 20 20 -2 69 -15 110 -27z"/>
</g>
</svg>
